PathFileType  4	(X/Y/Z) C:\Users\antoi\Documents\MyRepositories\mobilecap\ResultsAnalysis
DataRate	CameraRate	NumFrames	NumMarkers	Units	OrigDataRate	OrigDataStartFrame	OrigNumFrames
100.0	100.0	5	51	mm	100.0	86	170
Frame#	Time	r_knee			r_shank_antsup			r_ankle			r_calc			r_5meta			r_toe			L_knee			L_shank_antsup			L_ankle			L_calc			L_5meta			L_toe			r_sh2			r_sh3			r_sh4			L_sh2			L_sh3			r_thigh1			r_thigh2			r_thigh3			r_thigh4			r_thigh5			L_thigh1			L_thigh2			L_thigh3			L_thigh4			r.ASIS			r.PSIS			L.ASIS			L.PSIS			C7			R_Shoulder			L_Shoulder			R_Sternum			L_Sternum			R_humerus			R_elbow_med			R_elbow_lat			R_forearm			R_wrist_radius			R_wrist_ulna			L_humerus			L_elbow_med			L_elbow_lat			L_forearm			L_wrist_radius			L_wrist_ulna			R_HJC			L_HJC			R_HJC_reg			L_HJC_reg			
		X1	Y1	Z1	X2	Y2	Z2	X3	Y3	Z3	X4	Y4	Z4	X5	Y5	Z5	X6	Y6	Z6	X7	Y7	Z7	X8	Y8	Z8	X9	Y9	Z9	X10	Y10	Z10	X11	Y11	Z11	X12	Y12	Z12	X13	Y13	Z13	X14	Y14	Z14	X15	Y15	Z15	X16	Y16	Z16	X17	Y17	Z17	X18	Y18	Z18	X19	Y19	Z19	X20	Y20	Z20	X21	Y21	Z21	X22	Y22	Z22	X23	Y23	Z23	X24	Y24	Z24	X25	Y25	Z25	X26	Y26	Z26	X27	Y27	Z27	X28	Y28	Z28	X29	Y29	Z29	X30	Y30	Z30	X31	Y31	Z31	X32	Y32	Z32	X33	Y33	Z33	X34	Y34	Z34	X35	Y35	Z35	X36	Y36	Z36	X37	Y37	Z37	X38	Y38	Z38	X39	Y39	Z39	X40	Y40	Z40	X41	Y41	Z41	X42	Y42	Z42	X43	Y43	Z43	X44	Y44	Z44	X45	Y45	Z45	X46	Y46	Z46	X47	Y47	Z47	X48	Y48	Z48	X49	Y49	Z49	X50	Y50	Z50	X51	Y51	Z51	

86	0.85000000	555.21894	455.62950	-37.65043	555.93613	389.58903	-45.68012	245.48319	188.59322	-71.47651	179.06941	206.68563	-117.96438	303.70205	38.74887	-50.65333	345.29580	49.70070	-106.09761	805.85197	494.07959	-361.06704	843.81257	411.38202	-372.13474	785.76878	93.65140	-338.84217	722.03953	59.73943	-291.43399	907.06693	41.40406	-359.40264	947.38203	60.64857	-303.98592	470.27679	311.07292	-59.36382	505.28135	437.11926	-10.18002	420.41219	359.00485	-10.76929	756.03480	419.80077	-390.92415	754.51396	298.01201	-387.94568	719.49497	721.97013	-96.11786	703.05218	610.48585	-87.10094	678.96963	597.13945	-27.65179	646.61930	733.78178	-9.96216	629.68959	622.08114	-5.01274	741.92007	812.04484	-375.17898	788.92740	678.00567	-385.21222	635.12852	774.18623	-382.45915	679.66997	645.62507	-367.99567	730.08899	916.22805	-67.81759	544.93899	962.14323	-142.72492	747.62654	926.98301	-304.49914	545.72094	967.08484	-240.11367	593.57548	1415.47857	-293.50720	673.14031	1416.61889	-124.14356	652.62192	1310.78074	-437.15206	701.99081	1322.41511	-254.83740	705.51023	1309.19146	-291.52101	665.70734	1197.81153	7.36584	588.65120	1116.07834	10.63434	636.20872	1117.85116	50.12229	689.68372	982.08788	56.15235	711.73628	879.01978	39.62871	693.85297	880.70063	81.78055	614.19562	1069.67281	-471.55942	562.13168	982.84408	-406.24316	571.19525	979.26590	-463.79202	606.42101	839.83558	-482.60890	635.26459	736.42251	-465.31426	590.43622	731.55778	-473.82952	657.88873	839.25094	-109.16799	653.55509	859.59571	-298.70381	663.95788	849.92819	-104.57997	665.21288	857.87612	-261.17129	
87	0.86000000	574.06954	453.75825	-37.78540	573.80084	387.47148	-46.31500	257.61474	196.97315	-72.30484	192.56778	218.77719	-119.27109	307.21176	43.10719	-50.85853	349.95454	52.26597	-105.55442	813.86249	493.70308	-361.26013	850.78611	410.37075	-372.18559	786.45766	93.73094	-338.85321	722.17676	59.88014	-291.50884	907.13548	41.37564	-359.40314	947.34304	60.15825	-304.03234	485.84918	311.36176	-60.10455	524.92189	436.03411	-9.94276	437.50724	360.43246	-10.88813	763.25223	420.43338	-391.21075	759.36230	298.71937	-388.30492	731.57775	723.08441	-96.98467	717.78626	611.28693	-87.71969	693.97559	597.48648	-28.15019	658.50238	733.54894	-10.98510	644.18619	621.59411	-5.51643	752.86977	812.22125	-375.77267	798.48648	677.75433	-385.87466	645.66831	775.65409	-383.26851	688.64540	646.56245	-368.66158	739.76387	917.41477	-68.50514	554.80747	962.68849	-144.21571	758.73528	927.97017	-304.76521	556.36011	967.96021	-241.53659	603.62821	1415.15431	-298.34699	684.15511	1418.39224	-129.48254	662.11082	1308.84023	-440.87006	712.25076	1322.60938	-259.04830	715.75326	1309.02981	-295.57841	677.09624	1201.14161	4.50810	599.23560	1120.10415	9.98146	647.54965	1121.87870	48.68313	700.05013	985.70144	55.24518	720.80621	882.20557	39.43714	703.95184	884.63354	81.87787	627.62603	1067.02270	-473.44127	576.74715	979.95005	-407.78765	585.73770	976.45926	-465.44913	622.37679	837.15366	-483.67329	651.84069	733.83881	-466.08348	606.99569	728.73772	-474.64732	667.95955	840.19155	-110.03487	664.66886	860.50298	-299.58659	674.04655	850.47686	-106.01637	676.54149	858.94878	-262.34995	
88	0.87000000	593.00790	452.26186	-37.97345	591.85278	385.77485	-46.96342	270.47074	205.46774	-73.59466	207.02092	230.40843	-121.35051	312.00534	48.44850	-50.98446	355.81227	55.58636	-104.90507	821.01462	493.26417	-361.41253	856.91252	409.38868	-372.28579	787.03576	93.81509	-338.88822	722.24127	60.06138	-291.58428	907.18049	41.32023	-359.40845	947.37673	59.82213	-304.07822	502.00281	312.01939	-60.89017	544.61076	435.22384	-9.78719	454.90576	362.02444	-11.20988	769.55070	420.93932	-391.28085	763.54230	299.31434	-388.51006	743.55413	724.50066	-97.66805	732.45997	612.43422	-88.12541	708.87226	598.22948	-28.45930	670.18403	733.61845	-11.93723	658.47464	621.42408	-5.91999	763.39450	812.31152	-376.19355	807.50242	677.41653	-386.41960	655.81435	777.24754	-384.01589	696.97137	647.55530	-369.35799	748.95285	918.80417	-68.91355	564.34952	963.39031	-145.92836	769.61322	928.83187	-304.75563	566.75359	969.03035	-243.12325	613.59857	1415.06288	-302.89614	694.90396	1420.21516	-134.51024	671.40105	1307.31929	-444.39694	722.39165	1322.99837	-262.97845	725.84468	1309.07861	-299.37193	688.43867	1204.43023	1.65380	609.80542	1124.14865	9.57609	659.01947	1125.90277	47.38618	710.62939	989.34793	54.36559	729.93043	885.37177	39.23700	714.31118	888.62807	81.98466	640.60452	1064.90259	-475.21670	591.29936	977.43729	-409.07987	599.95399	974.15667	-466.89356	638.32051	835.03378	-484.58295	668.81786	731.89625	-466.76329	623.97194	726.47055	-475.19724	677.49906	841.32475	-110.71284	675.57455	861.37598	-300.30195	683.74674	850.99784	-107.26640	687.61095	860.05827	-263.34081	
89	0.88000000	611.93664	451.20091	-38.22876	610.01160	384.56395	-47.56849	283.99955	213.84852	-75.26626	222.22966	241.18760	-124.08172	318.45919	54.61581	-50.96183	363.17968	59.61932	-104.13832	827.40909	492.84491	-361.54369	862.23543	408.50054	-372.44592	787.51999	93.90873	-338.93759	722.23932	60.28459	-291.65909	907.20634	41.25167	-359.42423	947.45581	59.59901	-304.11478	518.60846	313.04184	-61.68901	564.17012	434.80759	-9.79143	472.50967	363.86239	-11.76128	774.97555	421.38961	-391.19789	767.08654	299.86227	-388.60239	755.43207	726.21978	-98.17579	747.03387	613.92301	-88.33467	723.63555	599.36468	-28.59380	681.65815	733.98363	-12.81467	672.55148	621.57727	-6.24008	773.48473	812.45341	-376.40264	816.07766	677.16159	-386.80427	665.61957	778.98974	-384.75412	704.82244	648.67292	-370.13676	757.67709	920.31376	-69.13465	573.61343	964.27231	-147.72146	780.21101	929.59116	-304.55928	576.88818	970.32007	-244.75425	623.49437	1415.18762	-307.18124	705.36436	1422.07618	-139.22149	680.59090	1306.17545	-447.74314	732.42421	1323.56220	-266.63405	735.77915	1309.30703	-302.90168	699.60386	1207.67040	-1.18835	620.30725	1128.14146	9.29200	670.47358	1129.88592	46.19074	721.34976	993.01459	53.53419	739.19304	888.55856	39.07299	724.85753	892.67040	82.10779	653.09627	1063.27249	-476.92269	605.70764	975.28959	-410.16387	613.82356	972.27366	-468.13646	654.18583	833.43231	-485.33617	686.10899	730.59460	-467.35419	641.33824	724.71871	-475.43376	686.53381	842.60462	-111.24350	686.17077	862.26061	-300.87867	693.05852	851.50619	-108.37112	698.32210	861.22053	-264.18567	
90	0.89000000	630.76654	450.64654	-38.53934	628.21395	383.90071	-48.07520	298.20060	221.86661	-77.21278	238.02468	250.81004	-127.25895	326.89259	61.32778	-50.78478	372.33213	64.22836	-103.30970	833.13919	492.48666	-361.66693	866.84273	407.72715	-372.65310	787.92961	94.01289	-338.99291	722.19913	60.53451	-291.72918	907.21883	41.18432	-359.45044	947.54199	59.44575	-304.14305	535.53774	314.41453	-62.47626	583.45567	434.90913	-10.03900	490.20531	366.01602	-12.56972	779.64273	421.81189	-391.05867	770.09045	300.39215	-388.63677	767.21460	728.25709	-98.52049	761.47735	615.76449	-88.37397	738.23822	600.88565	-28.57751	692.92565	734.64245	-13.61741	686.43234	622.06665	-6.49460	783.15340	812.72930	-376.40437	824.27934	677.07008	-387.01590	675.12451	780.86013	-385.51196	712.34959	649.93285	-370.99683	766.00305	921.88479	-69.28558	582.65094	965.35404	-149.45253	790.49043	930.30623	-304.29109	586.75756	971.81480	-246.31636	633.31683	1415.51154	-311.22428	715.53651	1423.97059	-143.62258	689.76317	1305.35844	-450.90912	742.35742	1324.28263	-270.02902	745.55357	1309.68980	-306.17410	710.48882	1210.86779	-3.98126	630.70200	1132.01573	8.99344	681.76345	1133.79674	45.05184	732.11243	996.69093	52.77271	748.65512	891.80605	38.98916	735.50273	896.74804	82.25093	665.11463	1062.07722	-478.58563	619.86695	973.51631	-411.10158	627.34478	970.73143	-469.20680	669.93744	832.29474	-485.94463	703.62373	729.93613	-467.86586	659.06410	723.44005	-475.34579	695.14493	843.99573	-111.68066	696.38246	863.20707	-301.35975	702.00544	852.07623	-109.37407	708.60444	862.45313	-264.93076	
